#!OML:ASF E:/inclinewalkrobotboard/Project1/Captureday1/Session1/subject1.ASF
:FULLY-SPECIFIED
:DEGREES
238
root 0 0 0 1.5396667455424482 -3.8673673421057995 1.8525307507899629
lowerback 12.239817067842706 0.9602542044983114 0.024512080127123637
upperback -4.446897866488294 1.2156430796130895 -0.6309276907961002
thorax -11.736058342658225 0.5622841218144287 -0.9366390042255719
lowerneck -6.0669496119201 1.866174362752725 4.773980239844537
upperneck 18.109229730867245 3.4991111619356294 -8.585387746894387
head 6.647884750955517 1.3078195307061278 -3.279932497563018
rclavicle 2.1634065691056246E-15 -7.063719015535991E-16
rhumerus 21.090798367247537 15.631090202196537 -47.810353420343134
rradius 73.27847862244741
rwrist 26.69113470433195
rhand -34.61501242444475 -57.180184381413774
rfingers 7.1250200000000286
rthumb -7.7173602799373935 -87.1412891560046
lclavicle -7.385655244635717E-16 -7.49359472058038E-16
lhumerus 23.172398031170978 -14.457639511266947 44.74601884628144
lradius 71.83067840942732
lwrist -22.251810124288497
lhand -45.75408705115135 -71.9535923351416
lfingers 7.1250200000000286
lthumb -18.508175386516633 -42.73683168855973
rfemur -24.991661853618137 -1.950452431979003 17.775772902684146
rtibia 50.65071002322902
rfoot -34.2688583246654 -18.297738460384345
rtoes -21.859376202262084
lfemur -28.085402639592285 2.1458812628284893 -17.164915196838137
ltibia 50.85112865563097
lfoot -35.58933196286299 -0.25477886270669936
ltoes -22.082550460808307
239
root 0 0 0 1.5400966118587323 -3.867781470201391 1.8521675960172792
lowerback 12.239501536344875 0.9604887586697546 0.024751054368265135
upperback -4.446787760713317 1.215971163493848 -0.6308854010774382
thorax -11.73571303636729 0.5624389724078271 -0.9367689162302426
lowerneck -6.067376209002827 1.8661051402015103 4.773835197805543
upperneck 18.109325665426276 3.498994635778155 -8.585181303513437
head 6.647982341138221 1.3077653947566277 -3.279851999047388
rclavicle 2.1638290958718487E-15 -7.052714683154091E-16
rhumerus 21.09147245991945 15.63197677699616 -47.81095191948382
rradius 73.27906805015247
rwrist 26.690491516293463
rhand -34.615079257580305 -57.18001595721231
rfingers 7.1250200000000286
rthumb -7.717427281104909 -87.14122826644
lclavicle -7.384525461858655E-16 -7.484101746608039E-16
lhumerus 23.17216085374052 -14.457511784839559 44.74610919606004
lradius 71.83049661683881
lwrist -22.251710983114897
lhand -45.7539480732207 -71.95306845664263
lfingers 7.1250200000000286
lthumb -18.50803905151716 -42.73631902233406
rfemur -24.981065856305193 -1.9450497124637556 17.784155032444154
rtibia 50.61798238704848
rfoot -34.289846550397016 -18.296819312423743
rtoes -21.874935439116527
lfemur -28.08420408383571 2.139746629720409 -17.157381488009705
ltibia 50.82813502019329
lfoot -35.58784176085185 -0.2522753786825427
ltoes -22.098897769209223
240
root 0 0 0 1.5403214602759645 -3.868125434265668 1.8518145742291745
lowerback 12.239285044725658 0.9607035425143802 0.025049089573711658
upperback -4.446719075539739 1.2162780570918776 -0.6308530460962737
thorax -11.735480752565682 0.5625831347840646 -0.9369355400586876
lowerneck -6.067674326473529 1.866075083558907 4.773781558779233
upperneck 18.109597283903085 3.4989394728560095 -8.58512969380086
head 6.648113625613076 1.3077333086511889 -3.2798320354646755
rclavicle 2.162806549020063E-15 -7.057738910951254E-16
rhumerus 21.090915672986206 15.631106628557204 -47.81027792942881
rradius 73.27864612626715
rwrist 26.691200324235208
rhand -34.615145818646766 -57.18023033116336
rfingers 7.1250200000000286
rthumb -7.717488631807619 -87.14148869808943
lclavicle -7.391965960438329E-16 -7.483766281170497E-16
lhumerus 23.171299732524595 -14.456253021828461 44.74588554593513
lradius 71.82956941833264
lwrist -22.252275826524034
lhand -45.75375288824517 -71.9533384199723
lfingers 7.1250200000000286
lthumb -18.507838819905157 -42.73662002837939
rfemur -24.97119158683529 -1.9429380134323182 17.788302252089856
rtibia 50.60561200188114
rfoot -34.29729946887076 -18.29366465873788
rtoes -21.885968145128025
lfemur -28.082592968117034 2.1364316036207867 -17.150723788130286
ltibia 50.82305682084226
lfoot -35.57393897105581 -0.2583984519042515
ltoes -22.10973512461021
241
root 0 0 0 1.5403450097380849 -3.868332611388092 1.8515576012245258
lowerback 12.239192832109124 0.9608501364395694 0.025313606924468324
upperback -4.4466969498721935 1.2164924971186477 -0.6308357595558124
thorax -11.73538667402403 0.5626833452623166 -0.9370859202916242
lowerneck -6.067806601894694 1.8660804335590078 4.773806224295729
upperneck 18.10992467332953 3.4989418185848535 -8.585200774054591
head 6.648235664369448 1.3077249822594958 -3.279859976130999
rclavicle 2.161023708315806E-15 -7.072750912140526E-16
rhumerus 21.08963180725047 15.629217430314695 -47.80887628391122
rradius 73.27761788773886
rwrist 26.692683889414404
rhand -34.61519566382842 -57.18066111702146
rfingers 7.1250200000000286
rthumb -7.717530768308549 -87.14191052834576
lclavicle -7.40356941932543E-16 -7.489938377153871E-16
lhumerus 23.17021756645709 -14.454516274163597 44.745496879808826
lradius 71.82835219961748
lwrist -22.253165689180335
lhand -45.753567822154345 -71.95410044771234
lfingers 7.1250200000000286
lthumb -18.50764454155481 -42.73741920374853
rfemur -24.964300342513596 -1.9436749296851836 17.788428577116754
rtibia 50.61068424653613
rfoot -34.29336577484513 -18.289731494377815
rtoes -21.891045322657533
lfemur -28.081095861448624 2.135932115742904 -17.14634744324028
ltibia 50.83188110527566
lfoot -35.55476841872681 -0.2690706705700161
ltoes -22.113982689993186
242
root 0 0 0 1.540220718926824 -3.8683912182063382 1.8514327635483263
lowerback 12.239211448725378 0.9609117880232826 0.025488151488480826
upperback -4.4467132300733905 1.2165878442597788 -0.6308333818857598
thorax -11.73541371548486 0.5627273717741024 -0.9371870647577782
lowerneck -6.067788627885888 1.8661094846961281 4.773879982923526
upperneck 18.110209001150853 3.4989842505074247 -8.58534063243394
head 6.64832045879346 1.3077355532375745 -3.279914712810573
rclavicle 2.1591517098285502E-15 -7.091030313301171E-16
rhumerus 21.08815792248094 15.62708418780108 -47.80731324187072
rradius 73.2764205939466
rwrist 26.69434139501291
rhand -34.61522134351956 -57.18113676104613
rfingers 7.1250200000000286
rthumb -7.717548917019643 -87.14234062279323
lclavicle -7.415207411079324E-16 -7.499146522477325E-16
lhumerus 23.169252123353083 -14.45287953568817 44.74508940192657
lradius 71.82723698636424
lwrist -22.254060981420913
lhand -45.753436659116616 -71.95501853914587
lfingers 7.1250200000000286
lthumb -18.507503517831136 -42.73836938002913
rfemur -24.961239390148712 -1.9462332762764154 17.785692359863734
rtibia 50.6267679524226
rfoot -34.282401383679755 -18.286235553012705
rtoes -21.890654295972734
lfemur -28.080052998486305 2.137541343299386 -17.144675297113803
ltibia 50.848290679549606
lfoot -35.536676915423946 -0.28027945769622997
ltoes -22.112519193246342
243
root 0 0 0 1.5400234230276149 -3.868330425980832 1.851432276678799
lowerback 12.239303572741933 0.9608980775377287 0.02555559437136612
upperback -4.4467524971443435 1.2165753127906307 -0.6308420745197724
thorax -11.735519380361733 0.5627207419688998 -0.9372281486123002
lowerneck -6.067669239100113 1.8661479398263319 4.773969809040163
upperneck 18.110391477983413 3.4990442725987423 -8.585493840114728
head 6.648357668291848 1.30775678750159 -3.279974585080745
rclavicle 2.157684935820365E-15 -7.10704255602823E-16
rhumerus 21.086919204527824 15.625313085299128 -47.80602777274712
rradius 73.27540399189809
rwrist 26.695706526672502
rhand -34.615223570207704 -57.18152501926175
rfingers 7.1250200000000286
rthumb -7.717545635539398 -87.14266893781651
lclavicle -7.423964827508629E-16 -7.508194363108408E-16
lhumerus 23.168611021189278 -14.451723597161894 44.7447707833436
lradius 71.82647329181414
lwrist -22.254735666938316
lhand -45.7533764084559 -71.95581664391204
lfingers 7.1250200000000286
lthumb -18.507435410482948 -42.739187944815185
rfemur -24.961647625536717 -1.949433283759368 17.781624737282215
rtibia 50.646577050414336
rfoot -34.269226460029074 -18.283921883075866
rtoes -21.886506721222375
lfemur -28.079589092047257 2.1402348909699724 -17.145330615134473
ltibia 50.86593535313988
lfoot -35.52387362379691 -0.28906016590885475
ltoes -22.10739213178205
